<svg width="56" height="56" viewBox="-1 -7 56 56" fill="none" xmlns="http://www.w3.org/2000/svg">
<g clip-path="url(#clip0_68_9)">
<path d="M32.8964 30.1478C41.09 19.8353 42.491 7.3165 36.0254 2.18618C29.5597 -2.94415 17.6762 1.25679 9.48248 11.5692C1.28882 21.8817 -0.112074 34.4005 6.3535 39.5308C12.8191 44.6611 24.7027 40.4602 32.8964 30.1478Z" fill="url(#paint0_linear_68_9)"/>
<path d="M45.0578 30.4509C53.2514 20.1385 54.6524 7.61972 48.1869 2.4894C41.7213 -2.64092 29.8376 1.56002 21.644 11.8725C13.4503 22.1849 12.0494 34.7037 18.515 39.834C24.9805 44.9644 36.8642 40.7634 45.0578 30.4509Z" fill="url(#paint1_linear_68_9)"/>
<path d="M36.0254 2.18618C42.4149 7.25612 41.122 19.5417 33.183 29.7828L9.48254 11.5692C17.6763 1.2568 29.5598 -2.94415 36.0254 2.18618Z" fill="url(#paint2_linear_68_9)"/>
<path d="M27.9737 9.73682L28.6193 13.656C29.1966 17.1613 31.944 19.9086 35.4493 20.486L39.3685 21.1316L35.4493 21.7771C31.944 22.3545 29.1966 25.1018 28.6193 28.6071L27.9737 32.5263L27.3282 28.6071C26.7508 25.1018 24.0034 22.3545 20.4981 21.7771L16.579 21.1316L20.4981 20.486C24.0034 19.9086 26.7508 17.1613 27.3282 13.656L27.9737 9.73682Z" fill="#EFF1F4"/>
</g>
<defs>
<linearGradient id="paint0_linear_68_9" x1="6.468" y1="40.6572" x2="36.7751" y2="1.47169" gradientUnits="userSpaceOnUse">
<stop stop-color="#59A0FF"/>
<stop offset="0.46" stop-color="#035BD2"/>
<stop offset="1" stop-color="#035BD2"/>
</linearGradient>
<linearGradient id="paint1_linear_68_9" x1="18.8342" y1="40.9336" x2="49.1413" y2="1.74809" gradientUnits="userSpaceOnUse">
<stop stop-color="#035BD2"/>
<stop offset="0.54" stop-color="#035BD2"/>
<stop offset="1" stop-color="#59A0FF"/>
</linearGradient>
<linearGradient id="paint2_linear_68_9" x1="35" y1="1.90887" x2="18.4546" y2="18.4543" gradientUnits="userSpaceOnUse">
<stop stop-color="#035BD2"/>
<stop offset="1" stop-color="#035BD2"/>
</linearGradient>
<clipPath id="clip0_68_9">
<rect width="56" height="42" fill="white"/>
</clipPath>
</defs>
</svg>
